<svg xmlns="http://www.w3.org/2000/svg" width="290.26" height="290.259" viewBox="-19789.129 -126.448 290.26 290.259"><g data-name="CompositeLayer"><g data-name="&lt;Clip Group&gt;"><path d="M-19498.87 18.682c0 80.217-64.912 145.13-145.129 145.13-80.217 0-145.13-64.913-145.13-145.13 0-80.218 64.913-145.13 145.13-145.13s145.13 64.912 145.13 145.13Zm-247.413-102.284c-27.299 27.298-42.333 63.623-42.333 102.284 0 38.66 15.034 74.985 42.333 102.284 27.298 27.298 63.624 42.332 102.284 42.332 38.66 0 74.986-15.034 102.284-42.332 27.298-27.299 42.333-63.624 42.333-102.284 0-38.66-15.035-74.986-42.333-102.284-27.298-27.299-63.624-42.333-102.284-42.333-38.66 0-74.986 15.034-102.284 42.333Z" fill="#fff" fill-rule="evenodd" data-name="&lt;Compound Path&gt;"/><path d="M-19539.31 18.682c0 57.865-46.824 104.688-104.69 104.688-57.864 0-104.688-46.823-104.688-104.688 0-57.866 46.824-104.689 104.689-104.689 57.865 0 104.689 46.823 104.689 104.689ZM-19717.68-55c-19.664 19.664-30.495 45.832-30.495 73.68 0 27.849 10.83 54.017 30.495 73.681 19.665 19.665 45.833 30.495 73.68 30.495 27.85 0 54.017-10.83 73.682-30.495 19.664-19.664 30.495-45.832 30.495-73.68 0-27.849-10.83-54.017-30.495-73.681-19.665-19.665-45.833-30.495-73.681-30.495s-54.016 10.83-73.68 30.495Z" fill="#fff" fill-rule="evenodd" data-name="&lt;Compound Path&gt;"/><path d="M-19573.01 18.681c0 39.24-31.75 70.99-70.989 70.99-39.239 0-70.99-31.75-70.99-70.99 0-39.238 31.751-70.989 70.99-70.989 39.239 0 70.99 31.75 70.99 70.99Zm-141.465 0c0 38.862 31.615 70.477 70.476 70.477 38.861 0 70.476-31.615 70.476-70.477 0-38.86-31.615-70.476-70.476-70.476-38.861 0-70.476 31.615-70.476 70.476Z" fill="#fff" fill-rule="evenodd" data-name="&lt;Compound Path&gt;"/></g><g data-name="Group 38724"><path d="M-19682.334 16.414a38.335 38.335 0 1 1 0 .1z" fill="#fff" fill-rule="evenodd" data-name="Ellipse 1154"/><path d="m-19630.094 3.502-19.575 22.023-12.235-9.788" stroke-linejoin="round" stroke-linecap="round" stroke-width="4" stroke="#722432" fill="transparent" data-name="Path 9369"/></g><g data-name="&lt;Clip Group&gt;"><path d="M-19498.87 18.682c0 80.217-64.912 145.13-145.13 145.13-80.216 0-145.129-64.913-145.129-145.13 0-80.218 64.913-145.13 145.13-145.13s145.13 64.912 145.13 145.13Zm-247.413-102.284c-27.299 27.298-42.333 63.623-42.333 102.284 0 38.66 15.034 74.985 42.333 102.284 27.298 27.298 63.624 42.332 102.284 42.332 38.66 0 74.986-15.034 102.284-42.332 27.298-27.299 42.333-63.624 42.333-102.284 0-38.66-15.035-74.986-42.333-102.284-27.298-27.299-63.624-42.333-102.284-42.333-38.66 0-74.986 15.034-102.284 42.333Z" fill="#fff" fill-rule="evenodd" data-name="&lt;Compound Path&gt;"/><path d="M-19539.31 18.682c0 57.865-46.824 104.688-104.69 104.688-57.864 0-104.688-46.823-104.688-104.688 0-57.866 46.824-104.689 104.689-104.689 57.865 0 104.689 46.823 104.689 104.689ZM-19717.68-55c-19.664 19.664-30.495 45.832-30.495 73.68 0 27.849 10.83 54.017 30.495 73.681 19.665 19.665 45.833 30.495 73.68 30.495 27.85 0 54.017-10.83 73.682-30.495 19.664-19.664 30.495-45.832 30.495-73.68 0-27.849-10.83-54.017-30.495-73.681-19.665-19.665-45.833-30.495-73.681-30.495s-54.016 10.83-73.68 30.495Z" fill="#fff" fill-rule="evenodd" data-name="&lt;Compound Path&gt;"/><path d="M-19573.01 18.681c0 39.24-31.75 70.99-70.989 70.99-39.239 0-70.99-31.75-70.99-70.99 0-39.238 31.751-70.989 70.99-70.989 39.239 0 70.99 31.75 70.99 70.99Zm-141.465 0c0 38.862 31.615 70.477 70.476 70.477 38.861 0 70.476-31.615 70.476-70.477 0-38.86-31.615-70.476-70.476-70.476-38.861 0-70.476 31.615-70.476 70.476Z" fill="#fff" fill-rule="evenodd" data-name="&lt;Compound Path&gt;"/></g></g></svg>