<svg xmlns="http://www.w3.org/2000/svg" width="15.601" height="17.632" viewBox="25.806 13.989 15.601 17.632"><path d="M26.494 31.62a.689.689 0 0 1-.688-.688 6.275 6.275 0 0 1 6.267-6.268h1.034c.707 0 1.401.117 2.064.348a.689.689 0 1 1-.454 1.301 4.881 4.881 0 0 0-1.61-.271h-1.034a4.896 4.896 0 0 0-4.89 4.89c0 .38-.308.689-.689.689ZM37.17 18.639a4.654 4.654 0 0 0-4.649-4.65 4.654 4.654 0 0 0-4.65 4.65 4.654 4.654 0 0 0 4.65 4.649 4.654 4.654 0 0 0 4.65-4.65Zm-1.377 0a3.275 3.275 0 0 1-3.272 3.271 3.275 3.275 0 0 1-3.272-3.271 3.275 3.275 0 0 1 3.272-3.272 3.275 3.275 0 0 1 3.272 3.272Zm4.924 8.85h-2.066v-2.066a.689.689 0 1 0-1.377 0v2.066h-2.067a.689.689 0 1 0 0 1.378h2.067v2.066a.689.689 0 1 0 1.377 0v-2.066h2.066a.689.689 0 1 0 0-1.378Z" fill="#fff" fill-rule="evenodd" data-name="add-user (5)"/></svg>