<svg xmlns="http://www.w3.org/2000/svg" width="16.978" height="16.977" viewBox="22.775 15.297 16.978 16.977"><g data-name="google"><path d="M27.475 20.03a5.327 5.327 0 0 1 7.344-.23c.135.12.352.112.48-.016l1.73-1.73a.351.351 0 0 0-.009-.507 8.46 8.46 0 0 0-5.885-2.249 8.457 8.457 0 0 0-5.885 2.507c-.168.17.029 2.22.029 2.22s1.249.961 2.196.005Z" fill="#fff" fill-rule="evenodd" data-name="Path 25"/><path d="M27.475 20.03a5.327 5.327 0 0 1 7.344-.23c.135.12.352.112.48-.016l.993-.993a4.96 4.96 0 0 1-.255-.21c-1.294-1.147-2.979-1.877-4.848-1.857a7.037 7.037 0 0 0-4.94 2.08c-.139.138-.193 1.223-.193 1.223s.162-.015 1.42.003Z" fill="#fff" fill-rule="evenodd" data-name="Path 26"/><path d="M25.923 23.738a5.326 5.326 0 0 0 1.58 3.842l-.757 1.634-1.468.591a8.463 8.463 0 0 1-2.503-6.007 8.465 8.465 0 0 1 2.475-5.993l2.225 2.225a5.322 5.322 0 0 0-1.552 3.708Z" fill="#fff" fill-rule="evenodd" data-name="Path 27"/><path d="M25.923 23.738a5.326 5.326 0 0 0 1.58 3.842l-1.216 1.217a7.04 7.04 0 0 1-2.084-4.897 7.043 7.043 0 0 1 2.045-5.096l1.227 1.227a5.322 5.322 0 0 0-1.552 3.707Z" fill="#fff" fill-rule="evenodd" data-name="Path 28"/><path d="M35.029 27.584a5.328 5.328 0 0 1-3.8 1.543 5.323 5.323 0 0 1-3.725-1.548l-2.225 2.226a8.461 8.461 0 0 0 5.959 2.47c2.33.007 4.448-.951 5.99-2.492l-.637-1.36-1.562-.839Z" fill="#fff" fill-rule="evenodd" data-name="Path 29"/><path d="M35.029 27.584a5.328 5.328 0 0 1-3.8 1.543 5.323 5.323 0 0 1-3.725-1.548l-1.217 1.218a7.04 7.04 0 0 0 4.977 2.052 7.04 7.04 0 0 0 4.977-2.052l-1.212-1.213Z" fill="#fff" fill-rule="evenodd" data-name="Path 30"/><path d="M39.753 22.914a.303.303 0 0 0-.303-.303h-7.902a.271.271 0 0 0-.271.272v2.612c0 .15.121.272.271.272h3.86c.397 0 .644.434.44.774a5.32 5.32 0 0 1-.816 1.04l-.003.003 2.199 2.2c.104-.105.21-.209.315-.313a8.569 8.569 0 0 0 2.21-5.75v-.807Z" fill="#fff" fill-rule="evenodd" data-name="Path 31"/><path d="M37.97 26.01a1.45 1.45 0 0 0-1.374-1.908h-5.319v1.393c0 .15.122.272.271.272h3.86c.397 0 .644.434.44.774-.228.38-.502.727-.813 1.037l-.006.006 1.212 1.213a7.066 7.066 0 0 0 1.729-2.788Z" fill="#fff" fill-rule="evenodd" data-name="Path 32"/></g></svg>