<svg xmlns="http://www.w3.org/2000/svg" width="16.691" height="16.691" viewBox="23.546 13.52 16.691 16.691"><g data-name="google"><path d="M74.548 4.653a5.237 5.237 0 0 1 7.22-.227.35.35 0 0 0 .472-.015l1.702-1.701a.345.345 0 0 0-.01-.498A8.317 8.317 0 0 0 78.146.001a8.315 8.315 0 0 0-5.785 2.465c-.166.166.028 2.181.028 2.181s1.228.946 2.159.006Z" fill-rule="evenodd" fill="url(&quot;#a&quot;)" transform="translate(-46.382 13.52)" data-name="Path 25"/><path d="M99.954 46.089a5.237 5.237 0 0 1 7.22-.227.35.35 0 0 0 .472-.016l.976-.976a4.873 4.873 0 0 1-.25-.207c-1.273-1.127-2.93-1.845-4.767-1.825a6.918 6.918 0 0 0-4.857 2.044c-.136.137-.189 1.203-.189 1.203s.159-.015 1.395.004Z" fill-rule="evenodd" fill="url(&quot;#b&quot;)" transform="translate(-71.787 -27.915)" data-name="Path 26"/><path d="M3.094 81.172a5.236 5.236 0 0 0 1.554 3.777l-.744 1.607-1.443.581A8.32 8.32 0 0 1 0 81.232a8.322 8.322 0 0 1 2.433-5.892l2.187 2.188a5.232 5.232 0 0 0-1.526 3.644Z" fill-rule="evenodd" fill="url(&quot;#c&quot;)" transform="translate(23.546 -59.354)" data-name="Path 27"/><path d="M44.535 110.18a5.236 5.236 0 0 0 1.554 3.778l-1.196 1.196a6.92 6.92 0 0 1-2.05-4.813 6.924 6.924 0 0 1 2.012-5.011l1.206 1.206a5.232 5.232 0 0 0-1.526 3.645Z" fill-rule="evenodd" fill="url(&quot;#d&quot;)" transform="translate(-17.894 -88.363)" data-name="Path 28"/><path d="M84.782 368.954a5.238 5.238 0 0 1-3.735 1.517 5.234 5.234 0 0 1-3.663-1.522l-2.188 2.188a8.319 8.319 0 0 0 5.858 2.428c2.29.007 4.374-.935 5.89-2.45l-.626-1.337-1.536-.824Z" fill-rule="evenodd" fill="url(&quot;#e&quot;)" transform="translate(-49.189 -343.354)" data-name="Path 29"/><path d="M114.084 368.954a5.239 5.239 0 0 1-3.735 1.517 5.234 5.234 0 0 1-3.662-1.522l-1.197 1.197a6.921 6.921 0 0 0 4.893 2.017c1.91 0 3.638-.77 4.893-2.017l-1.192-1.192Z" fill-rule="evenodd" fill="url(&quot;#f&quot;)" transform="translate(-78.491 -343.354)" data-name="Path 30"/><path d="M263.716 220.007a.298.298 0 0 0-.298-.298h-7.768a.267.267 0 0 0-.267.267v2.568c0 .148.12.267.267.267h3.794c.39 0 .633.427.432.762a5.229 5.229 0 0 1-.801 1.021l-.003.004 2.162 2.162.31-.307a8.424 8.424 0 0 0 2.172-5.654v-.792Z" fill-rule="evenodd" fill="url(&quot;#g&quot;)" transform="translate(-223.479 -198.998)" data-name="Path 31"/><path d="M261.964 266.375a1.425 1.425 0 0 0-1.35-1.875h-5.23v1.37c0 .147.12.266.267.266h3.794c.39 0 .633.427.432.762a5.234 5.234 0 0 1-.798 1.018l-.006.007 1.192 1.192a6.948 6.948 0 0 0 1.7-2.74Z" fill-rule="evenodd" fill="url(&quot;#h&quot;)" transform="translate(-223.48 -242.324)" data-name="Path 32"/></g><defs><linearGradient x1="0" y1=".5" x2="1" y2=".5" id="a"><stop stop-color="#ff637b" offset="0"/><stop stop-color="#f90217" offset="1"/></linearGradient><linearGradient x1=".799" y1="1.737" x2=".065" y2="-.534" id="b"><stop stop-color="#ff637b" offset="0"/><stop stop-color="#f90217" offset="1"/></linearGradient><linearGradient x1=".043" y1=".309" x2="1.019" y2=".694" id="c"><stop stop-color="#ffd833" offset="0"/><stop stop-color="#f2b631" offset="1"/></linearGradient><linearGradient x1="1.345" y1=".738" x2="-.149" y2=".244" id="d"><stop stop-color="#ffd833" offset="0"/><stop stop-color="#f2b631" offset="1"/></linearGradient><linearGradient x1=".44" y1=".241" x2=".655" y2=".79" id="e"><stop stop-color="#28a265" offset="0"/><stop stop-color="#28895e" offset="1"/></linearGradient><linearGradient x1=".831" y1="1.379" x2=".082" y2="-.9" id="f"><stop stop-color="#28a265" offset="0"/><stop stop-color="#28895e" offset="1"/></linearGradient><linearGradient x1=".427" y1=".134" x2=".893" y2=".685" id="g"><stop stop-color="#7faef4" offset="0"/><stop stop-color="#4c8df1" offset="1"/></linearGradient><linearGradient x1="1.023" y1="1.005" x2=".265" y2="-.088" id="h"><stop stop-color="#7faef4" offset="0"/><stop stop-color="#4c8df1" offset="1"/></linearGradient></defs></svg>