<svg xmlns="http://www.w3.org/2000/svg" width="12.77" height="17.49" viewBox="0 -0.245 12.77 17.49"><g data-name="privacy (2)"><path d="M6.385 12.884a.512.512 0 0 1-.512-.512v-2.123a.512.512 0 1 1 1.025 0v2.123c0 .282-.23.512-.513.512Zm0 0" fill="#fff" fill-rule="evenodd" data-name="Path 9371"/><path d="M.513 5.375h2.425V2.88c0-1.722 1.546-3.124 3.447-3.124 1.9 0 3.447 1.402 3.447 3.124v2.496h2.426c.283 0 .512.23.512.513v6.553a4.81 4.81 0 0 1-4.804 4.804H4.804A4.81 4.81 0 0 1 0 12.44V5.888c0-.283.23-.513.513-.513ZM8.808 2.88c0-1.157-1.087-2.1-2.423-2.1s-2.423.943-2.423 2.1v2.496h4.846V2.88Zm-7.783 9.562a3.784 3.784 0 0 0 3.78 3.78h3.16a3.784 3.784 0 0 0 3.78-3.78V6.4H1.025v6.04Zm0 0" fill="#fff" fill-rule="evenodd" data-name="Path 9372"/></g></svg>