<svg xmlns="http://www.w3.org/2000/svg" width="11.376" height="15.581" viewBox="0.81 0.512 11.376 15.581"><g data-name="privacy (2)"><path d="M6.499 12.208a.457.457 0 0 0 .456-.456V9.86a.456.456 0 1 0-.913 0v1.89c0 .253.204.457.457.457Zm0 0" fill-rule="evenodd" data-name="Path 9371"/><path d="M11.73 5.52H9.57V3.295C9.57 1.76 8.192.512 6.499.512c-1.694 0-3.072 1.249-3.072 2.784v2.223h-2.16a.457.457 0 0 0-.457.457v5.838c0 2.36 1.92 4.28 4.28 4.28h2.817c2.36 0 4.28-1.92 4.28-4.28V5.976a.457.457 0 0 0-.457-.457ZM4.34 3.295c0-1.032.968-1.87 2.159-1.87 1.19 0 2.158.838 2.158 1.87v2.223H4.34V3.296Zm6.934 8.518a3.37 3.37 0 0 1-3.367 3.366H5.09a3.37 3.37 0 0 1-3.367-3.366V6.432h9.55v5.382Zm0 0" fill-rule="evenodd" data-name="Path 9372"/></g></svg>