<svg xmlns="http://www.w3.org/2000/svg" width="13.835" height="16.72" viewBox="24.337 14.741 13.835 16.72"><g data-name="login"><g data-name="Path 9369"><path d="M37.65 14.741H26.155a.522.522 0 0 0-.522.523v1.567h1.045v-1.045h10.45v14.63h-10.45V29.37h-1.045v1.567c0 .289.233.523.522.523H37.65a.522.522 0 0 0 .522-.523V15.264a.522.522 0 0 0-.522-.523Z" fill="#fff" fill-rule="evenodd"/><path d="M37.65 14.741H26.155a.522.522 0 0 0-.522.523v1.567h1.045v-1.045h10.45v14.63h-10.45V29.37h-1.045v1.567c0 .289.233.523.522.523H37.65a.522.522 0 0 0 .522-.523V15.264a.522.522 0 0 0-.522-.523Z" stroke-linejoin="round" stroke-linecap="round" stroke-width=".3" stroke="#fff" fill="transparent"/></g><g data-name="Path 9370"><path d="m29.499 25.866.739.74 3.504-3.505-3.504-3.504-.74.738 2.244 2.243h-7.405v1.045h7.405l-2.243 2.243Z" fill="#fff" fill-rule="evenodd"/><path d="m29.499 25.866.739.74 3.504-3.505-3.504-3.504-.74.738 2.244 2.243h-7.405v1.045h7.405l-2.243 2.243Z" stroke-linejoin="round" stroke-linecap="round" stroke-width=".3" stroke="#fff" fill="transparent"/></g></g></svg>