<svg xmlns="http://www.w3.org/2000/svg" width="15.045" height="11.283" viewBox="-0.1 2.276 15.045 11.283"><g data-name="envelope (2)"><path d="M1.36 2.326h12.224c.778 0 1.41.633 1.41 1.41V12.2c0 .778-.632 1.41-1.41 1.41H1.36c-.777 0-1.41-.632-1.41-1.41V3.737c0-.778.633-1.41 1.41-1.41Zm0 .94a.468.468 0 0 0-.18.037l6.292 5.453 6.292-5.453a.468.468 0 0 0-.18-.036H1.36Zm0 9.403h12.224c.26 0 .47-.21.47-.47V4.296L7.78 9.734a.47.47 0 0 1-.616 0L.89 4.296V12.2c0 .26.211.47.47.47Z" fill="#fff" fill-rule="evenodd"/><path d="M1.36 2.326h12.224c.778 0 1.41.633 1.41 1.41V12.2c0 .778-.632 1.41-1.41 1.41H1.36c-.777 0-1.41-.632-1.41-1.41V3.737c0-.778.633-1.41 1.41-1.41Zm0 .94a.468.468 0 0 0-.18.037l6.292 5.453 6.292-5.453a.468.468 0 0 0-.18-.036H1.36Zm0 9.403h12.224c.26 0 .47-.21.47-.47V4.296L7.78 9.734a.47.47 0 0 1-.616 0L.89 4.296V12.2c0 .26.211.47.47.47Z" stroke-linejoin="round" stroke-linecap="round" stroke-width=".1" stroke="#fff" fill="transparent"/></g></svg>