<svg xmlns="http://www.w3.org/2000/svg" width="13.403" height="10.052" viewBox="0 4.433 13.403 10.052"><path d="M12.146 4.433H1.256C.564 4.433 0 4.997 0 5.69v7.539c0 .692.564 1.256 1.256 1.256h10.89c.693 0 1.257-.564 1.257-1.256v-7.54c0-.692-.564-1.256-1.257-1.256Zm0 .838c.057 0 .111.012.16.032l-5.605 4.858-5.605-4.858a.417.417 0 0 1 .16-.032h10.89Zm0 8.376H1.256a.42.42 0 0 1-.418-.418v-7.04l5.589 4.843a.418.418 0 0 0 .549 0l5.589-4.844v7.04a.42.42 0 0 1-.419.42Z" fill-rule="evenodd" data-name="envelope (2)"/></svg>