<svg xmlns="http://www.w3.org/2000/svg" width="290.26" height="290.26" viewBox="38.87 99.551 290.26 290.26"><g data-name="Layer 1"><g data-name="&lt;Clip Group&gt;"><path d="M329.131 244.682c0 80.217-64.913 145.13-145.13 145.13-80.218 0-145.13-64.913-145.13-145.13 0-80.218 64.912-145.13 145.13-145.13 80.217 0 145.13 64.912 145.13 145.13ZM81.716 142.397c-27.298 27.299-42.333 63.624-42.333 102.285 0 38.66 15.035 74.986 42.333 102.284 27.299 27.299 63.624 42.333 102.285 42.333 38.66 0 74.986-15.034 102.284-42.333 27.299-27.298 42.333-63.624 42.333-102.284 0-38.66-15.034-74.986-42.333-102.285-27.298-27.299-63.624-42.333-102.284-42.333-38.66 0-74.986 15.034-102.285 42.333Z" fill="#fff" fill-rule="evenodd" data-name="&lt;Compound Path&gt;"/><path d="M288.69 244.682c0 57.865-46.824 104.689-104.69 104.689-57.865 0-104.688-46.824-104.688-104.69 0-57.865 46.823-104.688 104.689-104.688 57.865 0 104.689 46.823 104.689 104.689ZM110.32 171c-19.665 19.665-30.495 45.833-30.495 73.682 0 27.848 10.83 54.016 30.495 73.68 19.664 19.665 45.832 30.496 73.68 30.496 27.85 0 54.017-10.83 73.682-30.495s30.495-45.833 30.495-73.681c0-27.849-10.83-54.017-30.495-73.682-19.665-19.664-45.833-30.495-73.681-30.495-27.849 0-54.017 10.83-73.681 30.495Z" fill="#fff" fill-rule="evenodd" data-name="&lt;Compound Path&gt;"/><path d="M254.99 244.681c0 39.24-31.75 70.99-70.99 70.99-39.238 0-70.989-31.75-70.989-70.99 0-39.238 31.75-70.989 70.99-70.989 39.239 0 70.99 31.75 70.99 70.99Zm-141.466 0c0 38.862 31.615 70.477 70.477 70.477 38.861 0 70.476-31.615 70.476-70.477 0-38.861-31.615-70.476-70.476-70.476-38.862 0-70.477 31.615-70.477 70.476Z" fill="#fff" fill-rule="evenodd" data-name="&lt;Compound Path&gt;"/></g><g data-name="&lt;Group&gt;"><path d="M117.423 141.679h133.262v201.67H117.423v-201.67z" fill="#2b1867" fill-rule="evenodd" data-name="Rectangle 17328"/><path d="M206.216 235.561v32.601c0 2.033-1.828 3.68-4.083 3.68h-36.157c-2.256 0-4.084-1.647-4.084-3.68v-32.6c0-2.033 1.828-3.682 4.084-3.682h4.129v-6.118c0-6.935 6.257-12.577 13.95-12.577 7.691 0 13.949 5.642 13.949 12.577v6.118h4.129c2.255 0 4.083 1.649 4.083 3.681Zm-19.144 18.276c1.789-.938 2.991-2.684 2.991-4.683 0-2.993-2.69-5.418-6.009-5.418-3.318 0-6.009 2.425-6.009 5.418 0 2 1.203 3.745 2.991 4.683l-1.504 12.97h9.045l-1.505-12.97Zm5.857-28.075c0-4.413-3.981-8.002-8.875-8.002s-8.874 3.59-8.874 8.002v6.118h17.749v-6.118Z" fill="#fff" fill-rule="evenodd" data-name="&lt;Compound Path&gt;"/></g><g data-name="&lt;Clip Group&gt;"><path d="M329.131 244.682c0 80.217-64.913 145.13-145.13 145.13-80.218 0-145.13-64.913-145.13-145.13 0-80.218 64.912-145.13 145.13-145.13 80.217 0 145.13 64.912 145.13 145.13ZM81.716 142.397c-27.298 27.299-42.333 63.624-42.333 102.285 0 38.66 15.035 74.986 42.333 102.284 27.299 27.299 63.624 42.333 102.285 42.333 38.66 0 74.986-15.034 102.284-42.333 27.299-27.298 42.333-63.624 42.333-102.284 0-38.66-15.034-74.986-42.333-102.285-27.298-27.299-63.624-42.333-102.284-42.333-38.66 0-74.986 15.034-102.285 42.333Z" fill="#fff" fill-rule="evenodd" data-name="&lt;Compound Path&gt;"/><path d="M288.69 244.682c0 57.865-46.824 104.689-104.69 104.689-57.865 0-104.688-46.824-104.688-104.69 0-57.865 46.823-104.689 104.689-104.689 57.865 0 104.689 46.824 104.689 104.69ZM110.32 171c-19.665 19.665-30.495 45.833-30.495 73.682 0 27.848 10.83 54.016 30.495 73.68 19.664 19.665 45.832 30.496 73.68 30.496 27.85 0 54.017-10.83 73.682-30.495s30.495-45.833 30.495-73.681c0-27.849-10.83-54.017-30.495-73.682-19.665-19.664-45.833-30.495-73.681-30.495-27.849 0-54.017 10.83-73.681 30.495Z" fill="#fff" fill-rule="evenodd" data-name="&lt;Compound Path&gt;"/><path d="M254.99 244.681c0 39.24-31.75 70.99-70.99 70.99-39.238 0-70.989-31.75-70.989-70.99 0-39.238 31.75-70.989 70.99-70.989 39.239 0 70.99 31.75 70.99 70.99Zm-141.466 0c0 38.862 31.615 70.477 70.477 70.477 38.861 0 70.476-31.615 70.476-70.477 0-38.861-31.615-70.476-70.476-70.476-38.862 0-70.477 31.615-70.477 70.476Z" fill="#fff" fill-rule="evenodd" data-name="&lt;Compound Path&gt;"/></g></g></svg>