<svg xmlns="http://www.w3.org/2000/svg" width="32.258" height="30.913" viewBox="229.893 174.392 32.258 30.913"><path d="M262.067 186.074a1.711 1.711 0 0 0-1.476-1.18l-9.31-.845-3.682-8.617a1.715 1.715 0 0 0-3.153.002l-3.682 8.615-9.312.846a1.714 1.714 0 0 0-1.474 1.179 1.713 1.713 0 0 0 .5 1.82l7.038 6.173-2.075 9.141a1.714 1.714 0 0 0 2.55 1.852l8.031-4.8 8.028 4.8a1.715 1.715 0 0 0 2.551-1.852l-2.075-9.141 7.038-6.171a1.715 1.715 0 0 0 .503-1.822Zm0 0" fill="#f2f2f2" fill-rule="evenodd" data-name="star (8)"/></svg>