<svg xmlns="http://www.w3.org/2000/svg" width="37" height="35" viewBox="307.999 -1167.155 32.45 30.913"><g data-name="g12"><path d="m324.691-1166.864 4.61 9.341a.52.52 0 0 0 .393.285l10.31 1.498a.52.52 0 0 1 .288.888l-7.46 7.272a.52.52 0 0 0-.15.461l1.761 10.268a.52.52 0 0 1-.755.549l-9.221-4.848a.52.52 0 0 0-.485 0l-9.22 4.848a.52.52 0 0 1-.756-.55l1.76-10.267a.52.52 0 0 0-.149-.46l-7.46-7.273a.52.52 0 0 1 .289-.888l10.309-1.498a.52.52 0 0 0 .392-.285l4.61-9.341a.52.52 0 0 1 .934 0" fill="#f3cc30" fill-rule="evenodd" data-name="path16"/><path d="m324.225-1164.706-4.109 7.958c-.216.417-.63.696-1.097.738l-8.92.815 9.424.44a1.375 1.375 0 0 0 1.354-.897l3.348-9.054" fill="#f7db5e" fill-rule="evenodd" data-name="path18"/><path d="m314.208-1138.033-.202 1.182a.52.52 0 0 0 .755.548l9.221-4.847a.52.52 0 0 1 .485 0l9.22 4.847a.52.52 0 0 0 .756-.548l-1.76-10.268a.52.52 0 0 1 .149-.46l7.46-7.273a.52.52 0 0 0-.289-.888l-3.453-.501c-5.585 10.022-14.137 15.3-22.342 18.208" fill="#edbd31" fill-rule="evenodd" data-name="path20"/></g></svg>