<svg xmlns="http://www.w3.org/2000/svg" width="15.341" height="14.951"><g data-name="Group 46892"><path d="M12.435 12.102h-9.51V2.827h9.51v9.275Zm-8.63-.82h7.81V3.586h-7.81v7.698Z" fill="#fff" fill-rule="evenodd" data-name="Path 38338"/><path d="M11.52 0h.92v1.817h-.92V0z" fill="#fff" fill-rule="evenodd" data-name="Rectangle 18588"/><path d="M2.88 0h.92v1.856h-.92V0z" fill="#fff" fill-rule="evenodd" data-name="Rectangle 18589"/><path d="M11.52 13.095h.9v1.798h-.9v-1.798z" fill="#fff" fill-rule="evenodd" data-name="Rectangle 18590"/><path d="M2.88 13.095h.92v1.856h-.92v-1.856z" fill="#fff" fill-rule="evenodd" data-name="Rectangle 18591"/><path d="M13.44 11.225h1.8v.93h-1.8v-.93z" fill="#fff" fill-rule="evenodd" data-name="Rectangle 18592"/><path d="M0 11.225h1.78v.858H0v-.858z" fill="#fff" fill-rule="evenodd" data-name="Rectangle 18593"/><path d="M13.44 2.806h1.9v.878h-1.9v-.878z" fill="#fff" fill-rule="evenodd" data-name="Rectangle 18594"/><path d="M0 2.806h1.86v.895H0v-.895z" fill="#fff" fill-rule="evenodd" data-name="Rectangle 18595"/></g></svg>