<svg xmlns="http://www.w3.org/2000/svg" width="16.256" height="17.689"><g data-name="Group 38567"><path d="m16.252 3.927-.023-.554-.552-.057c-2.119-.218-3.94-1.008-5.095-1.633C9.317.998 8.55.356 8.542.35L8.13 0l-.415.35c-.007.006-.774.648-2.04 1.333C4.52 2.308 2.699 3.098.58 3.316l-.551.057-.024.554C0 4.026-.089 6.389.821 9.25c.538 1.688 1.313 3.201 2.306 4.496a12.88 12.88 0 0 0 4.725 3.811l.276.132.277-.132a12.879 12.879 0 0 0 4.725-3.81c.992-1.296 1.768-2.809 2.305-4.497.91-2.861.821-5.224.817-5.323ZM8.128 16.264a11.576 11.576 0 0 1-3.968-3.277c-.901-1.172-1.61-2.546-2.103-4.085a16.55 16.55 0 0 1-.767-4.383c.85-.126 1.709-.339 2.561-.633a16.397 16.397 0 0 0 2.467-1.093 15.975 15.975 0 0 0 1.81-1.143c.376.277.996.7 1.81 1.143.804.437 1.633.804 2.467 1.093.853.295 1.712.507 2.563.633-.027.816-.16 2.47-.755 4.342-.492 1.547-1.2 2.928-2.101 4.105a11.575 11.575 0 0 1-3.984 3.298Z" fill="#fff" fill-rule="evenodd" data-name="Path 29597"/><path d="m11.624 5.927-.895.895-3.335 3.335-1.69-1.69-.23-.23-.453.453-.454.454 2.827 2.826 5.136-5.136-.906-.907Z" fill="#fff" fill-rule="evenodd" data-name="Path 29598"/></g></svg>